<svg id="SvgjsSvg1001" width="288" height="288" xmlns="http://www.w3.org/2000/svg" version="1.1" xmlns:xlink="http://www.w3.org/1999/xlink" xmlns:svgjs="http://svgjs.com/svgjs"><defs id="SvgjsDefs1002"></defs><g id="SvgjsG1008" transform="matrix(1,0,0,1,0,0)"><svg xmlns="http://www.w3.org/2000/svg" width="288" height="288" viewBox="0 0 512 512"><path d="M301 46c0-24.814-20.186-46-45-46s-45 21.186-45 46 20.186 45 45 45 45-20.186 45-45zM331 166c0-41.353-33.647-75-75-75s-75 33.647-75 75v15h150z" fill="#ffc536" class="color000 svgShape"></path><circle cx="436" cy="226" r="45" fill="#ffc536" class="color000 svgShape"></circle><path d="M436 271c-41.353 0-75 33.647-75 75v15h151v-15c0-41.353-34.647-75-76-75z" fill="#ffc536" class="color000 svgShape"></path><circle cx="76" cy="226" r="45" fill="#ffc536" class="color000 svgShape"></circle><path d="M151 346c0-41.353-33.647-75-75-75S0 304.647 0 346v15h151z" fill="#ffc536" class="color000 svgShape"></path><circle cx="256" cy="376" r="45" fill="#ffc536" class="color000 svgShape"></circle><path d="M331 496c0-41.353-33.647-75-75-75s-75 33.647-75 75v16h150zM91 136c0-24.814 20.186-45 45-45h15V61h-15c-41.353 0-75 33.647-75 75v15h30zM421 136v15h30v-15c0-41.353-33.647-75-75-75h-15v30h15c24.814 0 45 20.186 45 45zM61 391v15c0 41.353 33.647 75 75 75h15v-30h-15c-24.814 0-45-20.186-45-45v-15zM451 406v-15h-30v15c0 24.814-20.186 45-45 45h-15v30h15c41.353 0 75-33.647 75-75z" fill="#ffc536" class="color000 svgShape"></path></svg></g></svg>