<svg id="SvgjsSvg1001" width="288" height="288" xmlns="http://www.w3.org/2000/svg" version="1.1" xmlns:xlink="http://www.w3.org/1999/xlink" xmlns:svgjs="http://svgjs.com/svgjs"><defs id="SvgjsDefs1002"></defs><g id="SvgjsG1008" transform="matrix(1,0,0,1,0,0)"><svg xmlns="http://www.w3.org/2000/svg" enable-background="new 0 0 512 512" viewBox="0 0 512 512" width="288" height="288"><path d="M498.304 146.644c-11.172-15.143-28.153-25.401-46.59-28.143l-9.65-1.435c-4.658 20.087-15.376 38.138-30.871 51.855v186.718c0 40.077-32.605 72.683-72.682 72.683H101.74c6.274 10.48 17.012 18.179 30.008 20.112l259.951 38.657a42.8 42.8 0 0 0 6.298.467c8.981 0 17.695-2.859 25.044-8.307 9.058-6.712 14.96-16.551 16.618-27.703l29.709-199.78c22.136-9.29 38.129-29.434 41.841-53.676 2.776-18.133-1.807-36.405-12.905-51.448z" fill="#38b5e6" class="color000 svgShape"></path><path d="M393.882 45.426c-13.278-13.336-31.583-20.984-50.223-20.984H70.555c-18.639 0-36.945 7.648-50.223 20.984C7.141 58.673-.079 76.072.001 94.416c.107 24.525 12.964 46.799 33.492 59.245v201.978c0 23.274 18.935 42.21 42.21 42.21h262.809c23.274 0 42.209-18.936 42.209-42.21V153.662c20.529-12.446 33.385-34.722 33.492-59.245.078-18.345-7.141-35.743-20.331-48.991z" fill="#38b5e6" class="color000 svgShape"></path></svg></g></svg>