<svg id="SvgjsSvg1022" width="288" height="288" xmlns="http://www.w3.org/2000/svg" version="1.1" xmlns:xlink="http://www.w3.org/1999/xlink" xmlns:svgjs="http://svgjs.com/svgjs"><defs id="SvgjsDefs1023"></defs><g id="SvgjsG1024"><svg xmlns="http://www.w3.org/2000/svg" width="288" height="288" viewBox="0 0 512 512"><path d="M362 0H55C24.673 0 0 24.673 0 55v25h362zM457 0h-65v80h120V55c0-30.327-24.673-55-55-55zM360.482 382.812L286.004 356v-94c0-16.569-13.431-30-30-30-16.569 0-30 13.431-30 30v134.577c0 8.077-6.207 15.026-14.275 15.406-8.614.406-15.725-6.458-15.725-14.983v-10.715l-16.953 19.375c-13.196 15.081-13.196 37.599 0 52.68l42.47 48.537c2.848 3.255 6.963 5.122 11.289 5.122h111.482c6.883 0 12.883-4.684 14.552-11.362l20.581-82.323c3.735-14.941-4.451-30.285-18.943-35.502z" fill="#ffc536" class="color000 svgShape"></path><path d="M0 417c0 30.327 24.673 55 55 55h96.732c-18.107-26.025-16.537-61.776 4.742-86.095l39.529-45.177V262c0-33.084 26.916-60 60-60s60 26.916 60 60v72.915l54.641 19.671c29.098 10.475 45.385 41 37.885 71.004L396.927 472H457c30.327 0 55-24.673 55-55V110H0zm256-275c57.897 0 105 47.103 105 105 0 8.284-6.716 15-15 15s-15-6.716-15-15c0-41.355-33.645-75-75-75s-75 33.645-75 75c0 8.284-6.716 15-15 15s-15-6.716-15-15c0-57.897 47.103-105 105-105z" fill="#ffc536" class="color000 svgShape"></path></svg></g></svg>