<svg id="SvgjsSvg1001" width="288" height="288" xmlns="http://www.w3.org/2000/svg" version="1.1" xmlns:xlink="http://www.w3.org/1999/xlink" xmlns:svgjs="http://svgjs.com/svgjs"><defs id="SvgjsDefs1002"></defs><g id="SvgjsG1008" transform="matrix(1,0,0,1,0,0)"><svg xmlns="http://www.w3.org/2000/svg" enable-background="new 0 0 26 26" viewBox="0 0 26 26" width="288" height="288"><path fill="#38b5e6" d="M18 17.759v3.366C18 22.159 17.159 23 16.125 23H4.875C3.841 23 3 22.159 3 21.125V9.875C3 8.841 3.841 8 4.875 8h3.429l3.001-3h-6.43C2.182 5 0 7.182 0 9.875v11.25C0 23.818 2.182 26 4.875 26h11.25C18.818 26 21 23.818 21 21.125v-6.367l-3 3.001z" class="color030104 svgShape"></path><path fill="#38b5e6" d="M22.581 0H12.322c-1.886.002-1.755.51-.76 1.504l3.22 3.22-5.52 5.519c-1.145 1.144-1.144 2.998 0 4.141l2.41 2.411c1.144 1.141 2.996 1.142 4.14-.001l5.52-5.52 3.16 3.16c1.101 1.1 1.507 1.129 1.507-.757L26 3.419c-.001-3.437.024-3.42-3.419-3.419z" class="color030104 svgShape"></path></svg></g></svg>