<svg id="SvgjsSvg1125" width="288" height="288" xmlns="http://www.w3.org/2000/svg" version="1.1" xmlns:xlink="http://www.w3.org/1999/xlink" xmlns:svgjs="http://svgjs.com/svgjs"><defs id="SvgjsDefs1126"></defs><g id="SvgjsG1127"><svg xmlns="http://www.w3.org/2000/svg" enable-background="new 0 0 512 512" viewBox="0 0 512 512" width="288" height="288"><path d="M298.157 219.583l30.059-28.594-41.88-5.947c-4.848-.688-9.066-3.706-11.278-8.086L256 139.251l-19.058 37.705c-2.212 4.38-6.431 7.397-11.279 8.086l-41.88 5.947 30.059 28.594c3.633 3.472 5.303 8.525 4.438 13.462l-7.178 40.825 38.042-19.526c4.307-2.197 9.404-2.197 13.711 0l38.042 19.526-7.178-40.825c-.864-4.937.806-9.99 4.438-13.462z" fill="#ffc536" class="color000 svgShape"></path><path d="M467 15.999H45c-24.814 0-45 20.186-45 45v300c0 24.814 20.186 45 45 45h46v75c0 13.376 16.224 19.987 25.605 10.605l85.605-85.605H467c24.814 0 45-20.186 45-45v-300c0-24.814-20.186-45-45-45zm-95.658 175.357l-46.67 44.414 11.001 62.637c2.127 12.159-10.634 21.645-21.636 15.938L256 284.549l-58.037 29.795c-11.011 5.655-23.769-3.744-21.636-15.938l11.001-62.637-46.67-44.414c-9.071-8.656-4.132-23.974 8.232-25.723l64.805-9.199 28.916-57.202c5.098-10.107 21.68-10.107 26.777 0l28.916 57.202 64.805 9.199c12.365 1.749 17.304 17.067 8.233 25.724z" fill="#ffc536" class="color000 svgShape"></path></svg></g></svg>