<svg id="SvgjsSvg1131" width="288" height="288" xmlns="http://www.w3.org/2000/svg" version="1.1" xmlns:xlink="http://www.w3.org/1999/xlink" xmlns:svgjs="http://svgjs.com/svgjs"><defs id="SvgjsDefs1132"></defs><g id="SvgjsG1133"><svg xmlns="http://www.w3.org/2000/svg" enable-background="new 0 0 512 512" viewBox="0 0 512 512" width="288" height="288"><path d="M8.789 121L120 121 120 8.789zM391 271c-66.167 0-120 53.833-120 120s53.833 121 120 121 121-54.833 121-121-54.833-120-121-120zm55.605 115.605l-60 60c-5.859 5.859-15.352 5.859-21.211 0l-30-30c-5.859-5.859-5.859-15.352 0-21.211s15.352-5.859 21.211 0L376 414.789l49.395-49.395c5.859-5.859 15.352-5.859 21.211 0s5.859 15.352-.001 21.211z" fill="#ffc536" class="color000 svgShape"></path><path d="M75 331h178.715c23.212-52.881 75.934-90 137.285-90V45c0-24.814-20.186-45-45-45H150v136c0 8.291-6.709 15-15 15H0v315c0 24.814 20.186 46 45 46h256.928c-29.088-21.658-50.398-54.214-57.896-91H75c-8.291 0-15-6.709-15-15s6.709-15 15-15h166c0-10.272 1.055-20.303 3.032-30H75c-8.291 0-15-6.709-15-15s6.709-15 15-15zM195 91h121c8.291 0 15 6.709 15 15s-6.709 15-15 15H195c-8.291 0-15-6.709-15-15s6.709-15 15-15zm0 60h121c8.291 0 15 6.709 15 15s-6.709 15-15 15H195c-8.291 0-15-6.709-15-15s6.709-15 15-15zM75 211h241c8.291 0 15 6.709 15 15s-6.709 15-15 15H75c-8.291 0-15-6.709-15-15s6.709-15 15-15zm0 60h186.625c8.291 0 15 6.709 15 15s-6.709 15-15 15H75c-8.291 0-15-6.709-15-15s6.709-15 15-15z" fill="#ffc536" class="color000 svgShape"></path></svg></g></svg>