<svg id="SvgjsSvg1028" width="288" height="288" xmlns="http://www.w3.org/2000/svg" version="1.1" xmlns:xlink="http://www.w3.org/1999/xlink" xmlns:svgjs="http://svgjs.com/svgjs"><defs id="SvgjsDefs1029"></defs><g id="SvgjsG1030"><svg xmlns="http://www.w3.org/2000/svg" width="288" height="288" viewBox="0 0 512 512"><path d="M420.041 0H91.959C41.251 0 0 41.251 0 91.959V420.04C0 470.749 41.251 512 91.959 512h328.082C470.749 512 512 470.749 512 420.041V91.959C512 41.251 470.749 0 420.041 0zm12.649 399.561H268.599c-14.422 42.69-75.006 42.755-89.449 0H79.31c-19.922 0-19.927-30.118 0-30.118h99.84c14.421-42.69 75.006-42.755 89.449 0H432.69c19.922 0 19.928 30.118 0 30.118zm0-128.502h-35.589c-14.422 42.69-75.006 42.755-89.45 0H79.31c-19.922 0-19.927-30.118 0-30.118h228.342c14.421-42.69 75.006-42.755 89.45 0h35.589c19.921 0 19.927 30.118-.001 30.118zm0-128.502H204.348c-14.422 42.69-75.006 42.755-89.449 0H79.31c-19.922 0-19.927-30.118 0-30.118h35.589c14.421-42.69 75.006-42.755 89.449 0H432.69c19.922 0 19.928 30.118 0 30.118z" fill="#ffc536" class="color000 svgShape"></path><path d="M223.875 367.435c-22.581 0-22.569 34.133 0 34.133 22.58.001 22.568-34.133 0-34.133zM159.624 110.431c-22.581 0-22.569 34.133 0 34.133 22.58.001 22.568-34.133 0-34.133zM352.376 238.933c-22.581 0-22.569 34.133 0 34.133 22.581.001 22.569-34.133 0-34.133z" fill="#ffc536" class="color000 svgShape"></path></svg></g></svg>