<svg id="SvgjsSvg1034" width="288" height="288" xmlns="http://www.w3.org/2000/svg" version="1.1" xmlns:xlink="http://www.w3.org/1999/xlink" xmlns:svgjs="http://svgjs.com/svgjs"><defs id="SvgjsDefs1035"></defs><g id="SvgjsG1036"><svg xmlns="http://www.w3.org/2000/svg" enable-background="new 0 0 384 384" viewBox="0 0 384 384" width="288" height="288"><path d="M369.936 49.936l-35.888-35.888C325.056 5.056 312.848 0 300.112 0H288v96H64V0H32C14.32 0 0 14.32 0 32v320c0 17.68 14.32 32 32 32h320c17.68 0 32-14.32 32-32V83.888c0-12.736-5.056-24.944-14.064-33.952zM320 320H64V158.944h256V320z" fill="#ffc536" class="color000 svgShape"></path><path d="M208 .002H256V64.002H208zM96 192.002H288V224.002H96zM96 256.002H288V288.002H96z" fill="#ffc536" class="color000 svgShape"></path></svg></g></svg>