<svg id="SvgjsSvg1040" width="288" height="288" xmlns="http://www.w3.org/2000/svg" version="1.1" xmlns:xlink="http://www.w3.org/1999/xlink" xmlns:svgjs="http://svgjs.com/svgjs"><defs id="SvgjsDefs1041"></defs><g id="SvgjsG1042"><svg xmlns="http://www.w3.org/2000/svg" width="288" height="288" enable-background="new 0 0 145.042 145.041" viewBox="0 0 145.042 145.041"><path d="M136.975 37.437H56.403c-4.426 0-8.057-3.625-8.057-8.057v-8.058c0-4.427-3.625-8.057-8.059-8.057H8.059C3.631 13.264 0 16.89 0 21.321v96.688c0 4.433 3.625 8.061 8.059 8.061h74.066c-5.284-5.948-8.529-13.746-8.529-22.31 0-18.538 15.073-33.617 33.618-33.617s33.622 15.079 33.622 33.617c0 8.563-3.245 16.373-8.531 22.31h4.684c4.422 0 8.054-3.628 8.054-8.061V45.5c-.011-4.433-3.633-8.063-8.068-8.063z" fill="#ffc536" class="color000 svgShape"></path><path d="M107.208 75.744c-15.469 0-28.015 12.541-28.015 28.016s12.546 28.018 28.015 28.018c15.475 0 28.017-12.543 28.017-28.018s-12.543-28.016-28.017-28.016zm14.008 32.218h-9.806v9.806h-8.405v-9.806H93.2v-8.404h9.806v-9.806h8.405v9.806h9.806v8.404z" fill="#ffc536" class="color000 svgShape"></path></svg></g></svg>