<svg height="512" width="512" xmlns="http://www.w3.org/2000/svg">
    <path d="M23.858 443.069h464.284l-14.63-40.727V109.657l14.63-40.727H23.858l14.63 40.727v292.686zm159.921-211.446-58.139 15.579-7.765-28.979 29.161-7.814-24.397-14.086 15-25.98 24.397 14.086-7.813-29.161 28.978-7.764 15.578 58.138L241 230.019v-48.754l-42.56-42.56 21.213-21.213L241 138.84v-28.172h30v28.172l21.347-21.347 21.213 21.213-42.56 42.56v48.754l42.222-24.377 15.578-58.138 28.978 7.764-7.813 29.161 24.397-14.086 15 25.98-24.397 14.086 29.161 7.814-7.765 28.979-58.139-15.579L286 256l42.222 24.377 58.139-15.579 7.765 28.979-29.161 7.814 24.397 14.086-15 25.98-24.397-14.086 7.813 29.161-28.978 7.764-15.578-58.138L271 281.981v48.754l42.56 42.56-21.213 21.213L271 373.16v28.172h-30V373.16l-21.347 21.347-21.213-21.213 42.56-42.56V281.98l-42.222 24.377-15.578 58.138-28.978-7.764 7.813-29.161-24.397 14.086-15-25.98 24.397-14.086-29.161-7.814 7.765-28.979 58.139 15.579L226 256zM17.531 473.069h476.938V512H17.531zM17.531 0h476.938v38.931H17.531z"/>
</svg>
