<svg id="SvgjsSvg1137" width="288" height="288" xmlns="http://www.w3.org/2000/svg" version="1.1" xmlns:xlink="http://www.w3.org/1999/xlink" xmlns:svgjs="http://svgjs.com/svgjs"><defs id="SvgjsDefs1138"></defs><g id="SvgjsG1139"><svg xmlns="http://www.w3.org/2000/svg" width="288" height="288" enable-background="new 0 0 101.968 101.968" viewBox="0 0 101.968 101.968"><path d="M24.715 47.432L7.968 64.86v29.406c0 .828.671 1.5 1.5 1.5h20.334c.828 0 1.5-.672 1.5-1.5V49.158l-4.69-1.726h-1.897zM66.135 61.1H45.801c-.828 0-1.5.672-1.5 1.5v31.666c0 .828.672 1.5 1.5 1.5h20.334c.829 0 1.5-.672 1.5-1.5V62.6c0-.828-.671-1.5-1.5-1.5zM101.724 29.49c-.777.406-1.652.621-2.53.621-1.276 0-2.521-.45-3.5-1.27L92 25.753l-13.365 14.58v53.934c0 .828.672 1.5 1.5 1.5h20.334c.829 0 1.5-.672 1.5-1.5v-64.93c-.084.05-.159.108-.245.153z" fill="#ffc536" class="color000 svgShape"></path><path d="M57.797 54.094c1.144.419 2.424.108 3.248-.788l30.839-33.643 7.217 6.032c.353.294.847.349 1.254.136.407-.214.646-.648.605-1.107L99.396 7.235c-.055-.625-.606-1.086-1.231-1.029l-17.49 1.563c-.458.041-.846.354-.982.791-.047.146-.062.294-.049.44.026.294.167.572.403.769l7.229 6.043L57.98 47.769 24.535 35.463c-1.118-.41-2.373-.121-3.198.735L.837 57.531c-1.148 1.195-1.11 3.095.084 4.242.583.561 1.332.837 2.079.837.788 0 1.574-.309 2.164-.921l19.141-19.92 33.492 12.325z" fill="#ffc536" class="color000 svgShape"></path></svg></g></svg>