<svg id="SvgjsSvg1001" width="288" height="288" xmlns="http://www.w3.org/2000/svg" version="1.1" xmlns:xlink="http://www.w3.org/1999/xlink" xmlns:svgjs="http://svgjs.com/svgjs"><defs id="SvgjsDefs1002"></defs><g id="SvgjsG1008" transform="matrix(1,0,0,1,0,0)"><svg xmlns="http://www.w3.org/2000/svg" enable-background="new 0 0 423.055 423.055" viewBox="0 0 423.055 423.055" width="288" height="288"><path d="M362.021 10.869a17.713 17.713 0 0 0-19.269 2.93l-27.755 24.575a1.983 1.983 0 0 1-2.645-.008L274.588 4.59c-6.83-6.12-17.17-6.12-24 0l-37.73 33.745a2 2 0 0 1-2.665 0L172.459 4.59c-6.83-6.119-17.17-6.119-24 0L110.69 38.366a2 2 0 0 1-2.658.007l-27.78-24.574c-7.37-6.554-18.658-5.893-25.212 1.477a17.86 17.86 0 0 0-4.513 12.005v368.494c-.066 9.878 7.888 17.939 17.766 18.005a17.885 17.885 0 0 0 12.009-4.523l27.755-24.575a1.983 1.983 0 0 1 2.645.008l37.764 33.776c6.83 6.12 17.17 6.12 24 0l37.734-33.745a2 2 0 0 1 2.665 0l37.734 33.744c6.831 6.117 17.17 6.117 24 0l37.771-33.776a2 2 0 0 1 2.658-.007l27.78 24.574c7.373 6.551 18.66 5.885 25.211-1.488a17.86 17.86 0 0 0 4.508-11.993V27.281a17.706 17.706 0 0 0-10.506-16.412zM116.734 143.528h99.586a8 8 0 0 1 0 16h-99.586a8 8 0 0 1 0-16zm189.586 136H116.734a8 8 0 0 1 0-16H306.32a8 8 0 0 1 0 16zm0-60H116.734a8 8 0 0 1 0-16H306.32a8 8 0 0 1 0 16z" fill="#38b5e6" class="color000 svgShape"></path></svg></g></svg>