<svg id="SvgjsSvg1001" width="288" height="288" xmlns="http://www.w3.org/2000/svg" version="1.1" xmlns:xlink="http://www.w3.org/1999/xlink" xmlns:svgjs="http://svgjs.com/svgjs"><defs id="SvgjsDefs1002"></defs><g id="SvgjsG1008" transform="matrix(1,0,0,1,0,0)"><svg xmlns="http://www.w3.org/2000/svg" width="288" height="288" viewBox="0 0 24 24"><path d="M12 0C7.038 0 3 4.066 3 9.065c0 7.103 8.154 14.437 8.501 14.745.143.127.321.19.499.19s.356-.063.499-.189C12.846 23.502 21 16.168 21 9.065 21 4.066 16.962 0 12 0zm0 14c-2.757 0-5-2.243-5-5s2.243-5 5-5 5 2.243 5 5-2.243 5-5 5z" fill="#ffc536" class="color000 svgShape"></path></svg></g></svg>