<svg id="SvgjsSvg1001" width="288" height="288" xmlns="http://www.w3.org/2000/svg" version="1.1" xmlns:xlink="http://www.w3.org/1999/xlink" xmlns:svgjs="http://svgjs.com/svgjs"><defs id="SvgjsDefs1002"></defs><g id="SvgjsG1008" transform="matrix(1,0,0,1,0,0)"><svg xmlns="http://www.w3.org/2000/svg" enable-background="new 0 0 471.04 471.04" viewBox="0 0 471.04 471.04" width="288" height="288"><path d="M414.72 112.64h-49.152l-27.136-40.96c-10.24-15.36-28.16-24.576-46.592-24.576H179.2c-18.432 0-36.352 9.216-46.592 24.576l-27.136 40.96H56.32C25.088 112.64 0 137.728 0 168.96v198.656c0 31.232 25.088 56.32 56.32 56.32h358.4c31.232 0 56.32-25.088 56.32-56.32V168.96c0-31.232-25.088-56.32-56.32-56.32zm-179.2 265.216c-70.144 0-126.976-56.832-126.976-126.976s56.832-126.464 126.976-126.464 126.976 56.832 126.976 126.976c0 69.632-56.832 126.464-126.976 126.464zM407.552 192h-22.528c-9.216-.512-16.384-8.192-15.872-17.408.512-8.704 7.168-15.36 15.872-15.872h20.48c9.216-.512 16.896 6.656 17.408 15.872.512 9.216-6.144 16.896-15.36 17.408z" fill="#0e506b" class="color000 svgShape"></path><path d="M235.52 180.736c-38.912 0-70.656 31.744-70.656 70.656s31.744 70.144 70.656 70.144 70.656-31.744 70.656-70.656c0-38.912-31.744-70.144-70.656-70.144z" fill="#0e506b" class="color000 svgShape"></path></svg></g></svg>