<svg id="SvgjsSvg1143" width="288" height="288" xmlns="http://www.w3.org/2000/svg" version="1.1" xmlns:xlink="http://www.w3.org/1999/xlink" xmlns:svgjs="http://svgjs.com/svgjs"><defs id="SvgjsDefs1144"></defs><g id="SvgjsG1145"><svg xmlns="http://www.w3.org/2000/svg" enable-background="new 0 0 350 350" viewBox="0 0 350 350" width="288" height="288"><path d="M288.434 195.217H162.262V64.181c0-6.132-4.968-11.101-11.096-11.101-81.861 0-148.46 66.599-148.46 148.46S69.305 350 151.166 350c38.754 0 75.425-14.843 103.259-41.799 27.766-26.892 43.784-62.937 45.101-101.507.102-3.008-1.021-5.927-3.11-8.089-2.092-2.166-4.975-3.388-7.982-3.388z" fill="#ffc536" class="color000 svgShape"></path><path d="M198.834 0c-6.128 0-11.096 4.968-11.096 11.1v142.136c0 6.131 4.968 11.099 11.096 11.099h137.27c5.981 0 10.887-4.741 11.093-10.718.066-1.953.097-3.591.097-5.157C347.294 66.599 280.695 0 198.834 0z" fill="#ffc536" class="color000 svgShape"></path></svg></g></svg>