<svg id="SvgjsSvg1058" width="288" height="288" xmlns="http://www.w3.org/2000/svg" version="1.1" xmlns:xlink="http://www.w3.org/1999/xlink" xmlns:svgjs="http://svgjs.com/svgjs"><defs id="SvgjsDefs1059"></defs><g id="SvgjsG1060"><svg xmlns="http://www.w3.org/2000/svg" width="288" height="288" viewBox="0 -7 512 511"><path d="M359.809 311.559l40.386-45.434c4.793-5.395 10.22-10.047 16.106-13.926 10.445-22.594 16.285-47.734 16.285-74.219C432.586 80.117 352.969.5 255.106.5 157.237.5 77.62 80.121 77.62 177.984c0 53.207 23.543 101.016 60.75 133.575zM182.94 269.617l1.965-76.515-46.566-60.747 73.379-21.777 43.386-63.058 43.387 63.058 73.375 21.777-46.562 60.747 1.96 76.515-72.16-25.512zm0 0" fill="#ffc536" class="color000 svgShape"></path><path d="M493.652 280.742c-9.265-7.722-20.754-11.867-32.703-11.867-1.293 0-2.59.047-3.89.145-13.329 1-25.559 7.05-34.438 17.039l-42.789 48.136c5.41 8.082 8.57 17.793 8.57 28.227 0 28.058-22.832 50.887-50.89 50.887H243.82v-30.004h93.692c11.515 0 20.883-9.371 20.883-20.883 0-11.332-9.07-20.559-20.329-20.856h-200.71v155.008h249.37l113.938-144.293c17.52-21.636 14.383-53.71-7.012-71.539zm0 0M0 306.531h106.352v190.043H0zm0 0M255.105 212.277l41.047 14.516-1.117-43.527 26.488-34.555-41.738-12.387-24.68-35.87-24.68 35.87-41.741 12.387 26.488 34.555-1.117 43.527zm0 0" fill="#ffc536" class="color000 svgShape"></path></svg></g></svg>