<svg id="SvgjsSvg1064" width="288" height="288" xmlns="http://www.w3.org/2000/svg" version="1.1" xmlns:xlink="http://www.w3.org/1999/xlink" xmlns:svgjs="http://svgjs.com/svgjs"><defs id="SvgjsDefs1065"></defs><g id="SvgjsG1066"><svg xmlns="http://www.w3.org/2000/svg" width="288" height="288" viewBox="0 0 508 508"><path d="M470.958 21.167H37.042C16.616 21.167 0 37.783 0 58.208v52.917c0 20.426 16.616 37.042 37.042 37.042h433.917c20.426 0 37.042-16.616 37.042-37.042V58.208c-.001-20.425-16.617-37.041-37.043-37.041zM15.875 232.833h137.583c8.763 0 15.875-7.112 15.875-15.875s-7.112-15.875-15.875-15.875H15.875C7.112 201.083 0 208.195 0 216.958s7.112 15.875 15.875 15.875zM15.875 296.333h137.583c8.763 0 15.875-7.112 15.875-15.875s-7.112-15.875-15.875-15.875H15.875C7.112 264.583 0 271.695 0 280.458s7.112 15.875 15.875 15.875zM15.875 359.833h137.583c8.763 0 15.875-7.112 15.875-15.875s-7.112-15.875-15.875-15.875H15.875C7.112 328.083 0 335.195 0 343.958s7.112 15.875 15.875 15.875zM15.875 423.333h137.583c8.763 0 15.875-7.112 15.875-15.875s-7.112-15.875-15.875-15.875H15.875C7.112 391.583 0 398.695 0 407.458s7.112 15.875 15.875 15.875zM15.875 486.833h137.583c8.763 0 15.875-7.112 15.875-15.875s-7.112-15.875-15.875-15.875H15.875C7.112 455.083 0 462.195 0 470.958s7.112 15.875 15.875 15.875zM470.958 201.083h-222.25c-20.32 0-37.042 16.722-37.042 37.042v211.667c0 20.32 16.722 37.042 37.042 37.042h222.25c20.32 0 37.042-16.722 37.042-37.042V238.125c0-20.32-16.722-37.042-37.042-37.042zm-111.125 74.084c17.568 0 31.75 14.182 31.75 31.75s-14.182 31.75-31.75 31.75-31.75-14.182-31.75-31.75 14.182-31.75 31.75-31.75zm63.5 132.291c0 8.678-7.197 15.875-15.875 15.875h-95.25c-8.678 0-15.875-7.197-15.875-15.875v-7.832c0-22.013 19.897-39.793 44.45-39.793h38.1c24.553 0 44.45 17.78 44.45 39.793z" fill="#ffc536" class="color000 svgShape"></path></svg></g></svg>