<svg id="SvgjsSvg1001" width="288" height="288" xmlns="http://www.w3.org/2000/svg" version="1.1" xmlns:xlink="http://www.w3.org/1999/xlink" xmlns:svgjs="http://svgjs.com/svgjs"><defs id="SvgjsDefs1002"></defs><g id="SvgjsG1008" transform="matrix(1,0,0,1,0,0)"><svg xmlns="http://www.w3.org/2000/svg" width="288" height="288" viewBox="0 0 512 512"><path d="M463.52 256c0-114.61-92.91-207.52-207.52-207.52-50.79 0-97.32 18.26-133.39 48.55l44.46 52.99c24.05-20.2 55.07-32.37 88.93-32.37 76.41 0 138.35 61.94 138.35 138.35h-48.47l83.06 95.07L512 256zM256 394.35c-76.41 0-138.35-61.94-138.35-138.35h48.47l-83.06-95.07L0 256h48.48c0 114.61 92.91 207.52 207.52 207.52 50.79 0 97.32-18.26 133.39-48.55l-44.46-52.99c-24.05 20.2-55.07 32.37-88.93 32.37z" fill="#38b5e6" class="color000 svgShape"></path></svg></g></svg>