<svg id="SvgjsSvg1166" width="288" height="288" xmlns="http://www.w3.org/2000/svg" version="1.1" xmlns:xlink="http://www.w3.org/1999/xlink" xmlns:svgjs="http://svgjs.com/svgjs"><defs id="SvgjsDefs1167"></defs><g id="SvgjsG1168"><svg xmlns="http://www.w3.org/2000/svg" width="288" height="288" viewBox="0 0 24 24"><path d="M22 10.882c-.552 0-1-.448-1-1 0-2.805-1.092-5.441-3.075-7.425-.391-.391-.391-1.023 0-1.414s1.023-.391 1.414 0C21.7 3.404 23 6.543 23 9.882c0 .552-.448 1-1 1zM2 10.882c-.552 0-1-.448-1-1 0-3.339 1.3-6.478 3.661-8.839.391-.391 1.023-.391 1.414 0s.391 1.023 0 1.414C4.092 4.44 3 7.077 3 9.882c0 .552-.448 1-1 1zM21.379 16.913C19.867 15.635 19 13.767 19 11.788V9c0-3.519-2.614-6.432-6-6.92V1c0-.553-.448-1-1-1s-1 .447-1 1v1.08C7.613 2.568 5 5.481 5 9v2.788c0 1.979-.867 3.847-2.388 5.133-.389.333-.612.817-.612 1.329 0 .965.785 1.75 1.75 1.75h16.5c.965 0 1.75-.785 1.75-1.75 0-.512-.223-.996-.621-1.337zM12 24c1.811 0 3.326-1.291 3.674-3H8.326c.348 1.709 1.863 3 3.674 3z" fill="#ffc536" class="color000 svgShape"></path></svg></g></svg>