<svg id="SvgjsSvg1171" width="288" height="288" xmlns="http://www.w3.org/2000/svg" version="1.1" xmlns:xlink="http://www.w3.org/1999/xlink" xmlns:svgjs="http://svgjs.com/svgjs"><defs id="SvgjsDefs1172"></defs><g id="SvgjsG1173"><svg xmlns="http://www.w3.org/2000/svg" enable-background="new 0 0 512 469" viewBox="0 0 512 469" width="288" height="288"><path d="M361 114.8c3.3-8 1.5-17.1-4.6-23.3L271.1 6.2c-8.3-8.3-21.8-8.3-30.2 0l-85.3 85.3c-8.3 8.3-8.3 21.8 0 30.2 4 4 9.4 6.2 15.1 6.2H192v234.7c0 11.8 9.6 21.3 21.3 21.3h85.3c11.8 0 21.3-9.6 21.3-21.3V128h21.3c8.8 0 16.5-5.2 19.8-13.2zM446.5 131.6c-7.2-4.8-16.5-4.8-23.7 0l-64 42.7 23.7 35.5 30.8-20.6v88.1H456v-88.1l30.8 20.6 23.7-35.5-64-42.7zM404.2 323.6l-64 42.7 23.7 35.5 30.8-20.6v88.1h42.7v-88.1l30.8 20.6 23.7-35.5-64-42.7c-7.2-4.8-16.6-4.8-23.7 0zM73.5 216.9l-64 42.7 23.7 35.5L64 274.5v88.1h42.7v-88.1l30.8 20.6 23.7-35.5-64-42.7c-7.2-4.8-16.5-4.8-23.7 0z" fill="#ffc536" class="color000 svgShape"></path></svg></g></svg>