<svg id="SvgjsSvg1024" width="288" height="288" xmlns="http://www.w3.org/2000/svg" version="1.1" xmlns:xlink="http://www.w3.org/1999/xlink" xmlns:svgjs="http://svgjs.com/svgjs"><defs id="SvgjsDefs1025"></defs><g id="SvgjsG1026"><svg xmlns="http://www.w3.org/2000/svg" width="288" height="288" viewBox="0 0 60 60"><path d="M16.52 60h-5.04a1 1 0 0 1-.93-1.37l.81-2.03a8.912 8.912 0 0 0 5.28 0l.81 2.03a1 1 0 0 1-.93 1.37zM17.45 11.37l-.81 2.03a8.912 8.912 0 0 0-5.28 0l-.81-2.03a1 1 0 0 1 .93-1.37h5.04a1 1 0 0 1 .93 1.37zM48.52 60h-5.04a1 1 0 0 1-.93-1.37l.81-2.03a8.912 8.912 0 0 0 5.28 0l.81 2.03a1 1 0 0 1-.93 1.37zM49.45 11.37l-.81 2.03a8.912 8.912 0 0 0-5.28 0l-.81-2.03a1 1 0 0 1 .93-1.37h5.04a1 1 0 0 1 .93 1.37zM32.52 60h-5.04a1 1 0 0 1-.93-1.37l.81-2.03a8.912 8.912 0 0 0 5.28 0l.81 2.03a1 1 0 0 1-.93 1.37zM33.45 11.37l-.81 2.03a8.912 8.912 0 0 0-5.28 0l-.81-2.03a1 1 0 0 1 .93-1.37h5.04a1 1 0 0 1 .93 1.37zM14 15a7.008 7.008 0 0 0-7 7v22.114A4.874 4.874 0 0 1 8 44a4.995 4.995 0 0 1 1.861 9.632A6.986 6.986 0 0 0 21 48V34.578a5 5 0 1 1 0-9.156V22a7.008 7.008 0 0 0-7-7zm-3 20a1 1 0 1 1 1-1 1 1 0 0 1-1 1zm1-7a1 1 0 1 1 1-1 1 1 0 0 1-1 1zm5 20a1 1 0 1 1 1-1 1 1 0 0 1-1 1zm-1-11a3 3 0 1 1-3 3 3 3 0 0 1 3-3zm-4-13a3 3 0 1 1 3-3 3 3 0 0 1-3 3zm6-1a1 1 0 1 1 1-1 1 1 0 0 1-1 1z" fill="#38b5e6" class="color000 svgShape"></path><circle cx="12" cy="21" r="1" fill="#38b5e6" class="color000 svgShape"></circle><path d="M16 30a2.978 2.978 0 0 0 5 2.208v-4.416A2.978 2.978 0 0 0 16 30zM11 49a3 3 0 0 0-3-3 2.95 2.95 0 0 0-1 .2V48a6.957 6.957 0 0 0 1.245 3.975A2.994 2.994 0 0 0 11 49z" fill="#38b5e6" class="color000 svgShape"></path><circle cx="16" cy="40" r="1" fill="#38b5e6" class="color000 svgShape"></circle><path d="M30 15a7.008 7.008 0 0 0-7 7v26a7 7 0 0 0 14 0V22a7.008 7.008 0 0 0-7-7zm-4 35a1 1 0 1 1 1-1 1 1 0 0 1-1 1zm0-26a1 1 0 1 1 1-1 1 1 0 0 1-1 1zm1-4a1 1 0 1 1 1-1 1 1 0 0 1-1 1zm2 33a1 1 0 1 1 1-1 1 1 0 0 1-1 1zm1-4a1 1 0 1 1 1-1 1 1 0 0 1-1 1zm2-13a1 1 0 1 1 1-1 1 1 0 0 1-1 1zm2 3a1 1 0 1 1 1-1 1 1 0 0 1-1 1zm2-6a1 1 0 1 1-1-1 1 1 0 0 1 1 1zM47 32c5.819 0 5.995-2.895 6-3.018v-3.506A10.005 10.005 0 0 1 47 27a1 1 0 0 1 0-2c5.773 0 5.992-2.845 6-3.011A7 7 0 0 0 39 22v26a7 7 0 0 0 14 0v-1.524A10.005 10.005 0 0 1 47 48a1 1 0 0 1 0-2c5.819 0 5.995-2.9 6-3.018v-3.506A10.005 10.005 0 0 1 47 41a1 1 0 0 1 0-2c5.819 0 5.995-2.9 6-3.018v-3.506A10.005 10.005 0 0 1 47 34a1 1 0 0 1 0-2zM57 0H3a2 2 0 0 0 0 4h10v4h2V4h14v4h2V4h14v4h2V4h10a2 2 0 0 0 0-4z" fill="#38b5e6" class="color000 svgShape"></path></svg></g></svg>