<svg id="SvgjsSvg1080" width="288" height="288" xmlns="http://www.w3.org/2000/svg" version="1.1" xmlns:xlink="http://www.w3.org/1999/xlink" xmlns:svgjs="http://svgjs.com/svgjs"><defs id="SvgjsDefs1081"></defs><g id="SvgjsG1082"><svg xmlns="http://www.w3.org/2000/svg" width="288" height="288" enable-background="new 0 0 511.395 511.395" viewBox="0 0 511.395 511.395"><path d="M102.868 344.887l-89.729 89.707c-17.52 17.549-17.52 46.099.015 63.662 17.531 17.501 46.064 17.54 63.647-.015l89.705-89.716c-12.347-8.427-24.047-17.986-34.847-28.79-10.803-10.799-20.365-22.499-28.791-34.848zM152.87 61.542c-82.062 82.062-82.088 214.894 0 296.982 82.064 82.064 214.88 82.086 296.968 0 82.04-82.04 82.103-214.882.015-296.968-82.059-82.058-214.88-82.087-296.983-.014zm254.546 254.561c-58.64 58.61-153.468 58.625-212.124 0-58.612-58.643-58.625-153.47 0-212.124 58.641-58.612 153.468-58.625 212.124 0 58.61 58.639 58.625 153.468 0 212.124z" fill="#ffc536" class="color000 svgShape"></path><path d="M216.503 125.19c-46.888 46.919-46.893 122.778 0 169.702 45.337 45.308 124.351 45.337 169.702 0 46.89-46.919 46.893-122.778 0-169.702-46.919-46.89-122.777-46.895-169.702 0zm150.894 70.019l-69.683 69.683c-2.93 2.93-6.768 4.395-10.605 4.395s-7.676-1.465-10.605-4.395l-45-45c-5.859-5.859-5.859-15.352 0-21.211s15.352-5.859 21.211 0l34.395 34.395 59.077-59.077c5.859-5.859 15.352-5.859 21.211 0s5.858 15.351-.001 21.21z" fill="#ffc536" class="color000 svgShape"></path></svg></g></svg>