<svg id="SvgjsSvg1176" width="288" height="288" xmlns="http://www.w3.org/2000/svg" version="1.1" xmlns:xlink="http://www.w3.org/1999/xlink" xmlns:svgjs="http://svgjs.com/svgjs"><defs id="SvgjsDefs1177"></defs><g id="SvgjsG1178"><svg xmlns="http://www.w3.org/2000/svg" width="288" height="288" viewBox="0 0 56 56"><g fill="#ffc536" fill-rule="nonzero" class="color000 svgShape"><path d="M27.056 39.7l-11.18 11.18c-1.17 1.176-1.168 3.077.006 4.25 1.176 1.16 3.067 1.158 4.241-.005L31.3 43.944c-1.653-1.154-3.09-2.59-4.244-4.244zM25.208 24.005c2.577-6.57 8.879-10.922 15.935-11.005 3.137.027 6.204.927 8.857 2.6V1c0-.552-.448-1-1-1H1C.448 0 0 .448 0 1v32c0 .552.448 1 1 1h23.5c-.856-3.32-.608-6.829.708-9.995zM12 3c.552 0 1 .448 1 1s-.448 1-1 1-1-.448-1-1 .448-1 1-1zM8 3c.552 0 1 .448 1 1s-.448 1-1 1-1-.448-1-1 .448-1 1-1zM4 3c.552 0 1 .448 1 1s-.448 1-1 1-1-.448-1-1 .448-1 1-1zm11.707 16.707c-.39.39-1.024.39-1.414 0l-2.939-2.939c-.094-.094-.221-.147-.354-.147s-.26.053-.354.147l-5.939 5.939c-.392.379-1.016.374-1.402-.012-.386-.386-.391-1.01-.012-1.402l7-7c.39-.39 1.024-.39 1.414 0l2.939 2.939c.094.094.221.147.354.147s.26-.053.354-.147l6.939-6.939c.39-.39 1.024-.39 1.414 0l2.939 2.939c.094.094.221.147.354.147s.26-.053.354-.147l7.939-7.939c.39-.39 1.024-.39 1.414 0l2.939 2.939c.094.094.221.147.354.147s.26-.053.354-.147l4.939-4.939c.251-.26.623-.364.973-.273.35.092.622.365.714.714.091.35-.013.722-.273.973l-6 6c-.39.39-1.024.39-1.414 0l-2.939-2.939c-.094-.094-.221-.147-.354-.147s-.26.053-.354.147l-7.939 7.939c-.39.39-1.024.39-1.414 0l-2.939-2.939c-.094-.094-.221-.147-.354-.147s-.26.053-.354.147z" fill="#ffc536" class="color000 svgShape"></path><path d="M41 15c-8.284 0-15 6.716-15 15s6.716 15 15 15 15-6.716 15-15c-.01-8.28-6.72-14.99-15-15zm-2.729 5.383C33.975 21.61 31.009 25.532 31 30c0 .552-.448 1-1 1s-1-.448-1-1c.012-5.363 3.572-10.07 8.729-11.543.344-.097.714-.003.97.247s.359.616.27.963-.354.62-.698.716z" fill="#ffc536" class="color000 svgShape"></path></g></svg></g></svg>