<svg id="SvgjsSvg1183" width="288" height="288" xmlns="http://www.w3.org/2000/svg" version="1.1" xmlns:xlink="http://www.w3.org/1999/xlink" xmlns:svgjs="http://svgjs.com/svgjs"><defs id="SvgjsDefs1184"></defs><g id="SvgjsG1185"><svg xmlns="http://www.w3.org/2000/svg" width="288" height="288" viewBox="0 0 512 512.006"><path d="M507.523 148.89l-138.668-144c-4.523-4.69-11.457-6.163-17.492-3.734-6.058 2.453-10.027 8.32-10.027 14.848V85.34h-5.332c-114.688 0-208 93.312-208 208v32c0 7.422 5.226 13.61 12.457 15.297 1.176.297 2.348.425 3.52.425 6.039 0 11.82-3.542 14.613-9.109 29.996-60.012 90.304-97.281 157.398-97.281h25.344v69.332c0 6.531 3.969 12.398 10.027 14.828 5.996 2.453 12.969.961 17.492-3.734l138.668-144c5.973-6.207 5.973-15.977 0-22.207zm0 0" fill="#ffc536" class="color000 svgShape"></path><path d="M448.004 512.004h-384c-35.285 0-64-28.711-64-64V149.34c0-35.285 28.715-64 64-64h64c11.797 0 21.332 9.535 21.332 21.332s-9.535 21.332-21.332 21.332h-64c-11.777 0-21.336 9.559-21.336 21.336v298.664c0 11.777 9.559 21.336 21.336 21.336h384c11.773 0 21.332-9.559 21.332-21.336V277.34c0-11.797 9.535-21.336 21.332-21.336 11.8 0 21.336 9.539 21.336 21.336v170.664c0 35.289-28.715 64-64 64zm0 0" fill="#ffc536" class="color000 svgShape"></path></svg></g></svg>