<svg id="SvgjsSvg1093" width="288" height="288" xmlns="http://www.w3.org/2000/svg" version="1.1" xmlns:xlink="http://www.w3.org/1999/xlink" xmlns:svgjs="http://svgjs.com/svgjs"><defs id="SvgjsDefs1094"></defs><g id="SvgjsG1095"><svg xmlns="http://www.w3.org/2000/svg" width="288" height="288" viewBox="0 0 512 512"><path d="M160 512c-35.29 0-64-28.71-64-64s28.71-64 64-64 64 28.71 64 64-28.71 64-64 64zM307 192h-38c-2.761 0-5 2.239-5 5v54c0 2.761 2.239 5 5 5h38c2.761 0 5-2.239 5-5v-54c0-2.761-2.239-5-5-5z" fill="#ffc536" class="color000 svgShape"></path><path d="M463.548 432H432V208c0-8.837-7.163-16-16-16h-67c-2.761 0-5 2.239-5 5v75c0 8.837-7.163 16-16 16h-80c-8.837 0-16-7.163-16-16v-75c0-2.761-2.239-5-5-5h-51V72c0-19.222-7.487-37.302-21.092-50.919C141.3 7.487 123.22 0 104 0 64.439 0 32.228 32.071 32.001 71.579c-.05 8.715 6.817 16.164 15.529 16.414 9.051.26 16.47-7 16.47-15.993 0-22.056 17.944-40 40-40 10.68 0 20.727 4.162 28.28 11.708C139.837 51.272 144 61.32 144 72V347.607c0 2.975 2.58 5.288 5.538 4.964 3.436-.376 6.926-.571 10.462-.571 52.935 0 96 43.065 96 96 0 3.535-.195 7.026-.571 10.462-.324 2.957 1.989 5.538 4.964 5.538H464c9.094 0 16.415-7.586 15.982-16.774-.406-8.605-7.819-15.226-16.434-15.226z" fill="#ffc536" class="color000 svgShape"></path></svg></g></svg>