<svg id="SvgjsSvg1099" width="288" height="288" xmlns="http://www.w3.org/2000/svg" version="1.1" xmlns:xlink="http://www.w3.org/1999/xlink" xmlns:svgjs="http://svgjs.com/svgjs"><defs id="SvgjsDefs1100"></defs><g id="SvgjsG1101"><svg xmlns="http://www.w3.org/2000/svg" width="288" height="288" viewBox="0 -10 511.991 511"><path d="M510.652 185.883c-3.37-10.367-12.566-17.707-23.402-18.688l-147.797-13.418-58.41-136.75C276.73 6.98 266.918.497 255.996.497s-20.738 6.483-25.023 16.53l-58.41 136.75-147.82 13.418c-10.837 1-20.013 8.34-23.403 18.688-3.371 10.367-.258 21.738 7.937 28.926L121 312.773 88.059 457.86c-2.41 10.668 1.73 21.7 10.582 28.098 4.757 3.457 10.347 5.184 15.957 5.184 4.82 0 9.644-1.282 13.953-3.86l127.445-76.203 127.422 76.203c9.348 5.586 21.102 5.074 29.934-1.324 8.851-6.398 12.992-17.43 10.582-28.098l-32.942-145.086 111.723-97.964c8.191-7.188 11.308-18.536 7.937-28.926zM258.45 409.605" fill="#ffc536" class="color000 svgShape"></path></svg></g></svg>