<svg id="SvgjsSvg1040" width="288" height="288" xmlns="http://www.w3.org/2000/svg" version="1.1" xmlns:xlink="http://www.w3.org/1999/xlink" xmlns:svgjs="http://svgjs.com/svgjs"><defs id="SvgjsDefs1041"></defs><g id="SvgjsG1042"><svg xmlns="http://www.w3.org/2000/svg" width="288" height="288"><path d="M461 317H51c-16.569 0-30-13.431-30-30 0-16.569 13.431-30 30-30h410c16.569 0 30 13.431 30 30 0 16.569-13.431 30-30 30zM364 108l17.855-23.807a138.448 138.448 0 0 0-3.498-8.243C366.85 51.146 342.31 17.971 290.743.782c-4.304-1.435-9.02-.886-12.838 1.564-3.818 2.449-6.318 6.453-6.809 10.963-.024.207-2.661 20.92-18.493 44.515-18.176 27.09-45.614 46.943-81.705 59.194C311.592 174.943 363.482 108.69 364 108zM158.82 512h44.754l-5.5-165H142.32zM308.426 512h44.754l16.5-165h-55.754zM383.33 512h7.256c22.088 0 40.756-15.814 44.388-37.603L456.207 347H399.83zM233.59 512h44.82l5.5-165h-55.821zM77.026 474.397C80.658 496.186 99.326 512 121.414 512h7.256l-16.5-165H55.793z" fill="#38b5e6" class="color000 svgShape"></path><path d="M393.671 118.438 388 126c-.729.973-18.314 23.964-57.41 36.53-16.94 5.445-35.435 8.184-55.175 8.184-6.145 0-12.409-.266-18.786-.797-32.751-2.729-68.631-12.545-106.642-29.175l-22.612-9.892c-8.833 3.842-19.022 9.217-29.024 16.586C78.37 162.16 56.11 187.165 51.268 227h413.93c.036-6.967-.478-14.629-1.94-22.671-4.855-26.703-21.058-62.338-69.587-85.891z" fill="#38b5e6" class="color000 svgShape"></path></svg></g></svg>