<svg id="SvgjsSvg1001" width="288" height="288" xmlns="http://www.w3.org/2000/svg" version="1.1" xmlns:xlink="http://www.w3.org/1999/xlink" xmlns:svgjs="http://svgjs.com/svgjs"><defs id="SvgjsDefs1002"></defs><g id="SvgjsG1008" transform="matrix(1,0,0,1,0,0)"><svg xmlns="http://www.w3.org/2000/svg" width="288" height="288" viewBox="0 0 512.039 512.039"><path d="M202.681 119.017l-24.452 56.846H41.549v199.359h161.132zM109.65 336.773h-30v-30h30zM410.896 248.57c-55.771 0-101.143 45.372-101.143 101.143s45.372 101.143 101.143 101.143 101.143-45.372 101.143-101.143S466.667 248.57 410.896 248.57zm-16.059 150.325l-47.918-47.918 21.213-21.213 26.705 26.705 56.516-56.516 21.213 21.213z" fill="#38b5e6" class="color000 svgShape"></path><path d="M194.899 61.184H36.426L0 145.862h158.475zM393.813 219.683v-43.82h-136.68l-24.453-56.847v256.207h49.572c-1.634-8.254-2.499-16.782-2.499-25.509.001-66.525 49.79-121.634 114.06-130.031z" fill="#38b5e6" class="color000 svgShape"></path><path d="M240.462 61.184l36.426 84.678h158.473l-36.424-84.678z" fill="#38b5e6" class="color000 svgShape"></path></svg></g></svg>