<svg width="32" height="32" viewBox="0 0 32 32" fill="none" xmlns="http://www.w3.org/2000/svg"><path d="M24 4H8a4 4 0 00-4 4v16a4 4 0 004 4h16a4 4 0 004-4V8a4 4 0 00-4-4z" fill="#fff"/><path fill-rule="evenodd" clip-rule="evenodd" d="M8 5a3 3 0 00-3 3v16a3 3 0 003 3h16a3 3 0 003-3V8a3 3 0 00-3-3H8zM3 8a5 5 0 015-5h16a5 5 0 015 5v16a5 5 0 01-5 5H8a5 5 0 01-5-5V8z" fill="#B4BAC7"/><path fill-rule="evenodd" clip-rule="evenodd" d="M18.706 20.708a1 1 0 01-1.414-.002l-4-4.015a1 1 0 010-1.411l3.97-3.986a1 1 0 011.417 1.412l-3.267 3.28 3.296 3.308a1 1 0 01-.002 1.414z" fill="#B4BAC7"/></svg>