<svg xmlns="http://www.w3.org/2000/svg" xmlns:xlink="http://www.w3.org/1999/xlink" viewBox="0 0 187 32" width="187" height="32"><defs><path id="a" d="M9 16c2.6 0 4.2-1.4 4.2-3.6v-.1c0-2.3-1.6-3.5-4.3-3.5H3.7V16H9zM0 5.4h9.2c2.6 0 4.6.8 6 2.1 1.1 1.2 1.7 2.7 1.7 4.6v.1c0 3.5-2 5.6-4.9 6.4l5.6 8.1h-4.3l-5.1-7.4H3.7v7.4H0V5.4z"/></defs><clipPath id="b"><use xlink:href="#a" overflow="visible"/></clipPath><path clip-path="url(#b)" fill="#1E2432" d="M-5 .4h27.5v31.3H-5z"/><defs><path id="c" d="M38.5 18.3l-3.6-8.5-3.5 8.5h7.1zm-5.2-13h3.4l9.1 21.4H42l-2.1-5.1H30l-2.1 5.1h-3.7l9.1-21.4z"/></defs><clipPath id="d"><use xlink:href="#c" overflow="visible"/></clipPath><path clip-path="url(#d)" fill="#1E2432" d="M19.2.3h31.5v31.4H19.2z"/><defs><path id="e" d="M52.9 5.4h3.3l11.1 14.7V5.4h3.5v21.3h-3L56.4 11.6v15.1h-3.5V5.4"/></defs><clipPath id="f"><use xlink:href="#e" overflow="visible"/></clipPath><path clip-path="url(#f)" fill="#1E2432" d="M47.9.4h28v31.3h-28z"/><defs><path id="g" d="M78.1 16.1c0-6 4.4-11.1 10.6-11.1 3.6 0 5.8 1 7.9 2.9l-2.3 2.8c-1.6-1.4-3.2-2.3-5.8-2.3-3.8 0-6.7 3.4-6.7 7.5v.1c0 4.4 2.8 7.6 7 7.6 1.9 0 3.7-.6 5-1.6v-4h-5.3v-3.3h8.8v8.9c-2 1.8-5 3.3-8.6 3.3-6.3.2-10.6-4.6-10.6-10.8"/></defs><clipPath id="h"><use xlink:href="#g" overflow="visible"/></clipPath><path clip-path="url(#h)" fill="#1E2432" d="M73.1.1h29.3v32H73.1z"/><defs><path id="i" d="M105.6 5.4h15.3v3.4h-11.7v5.5h10.3v3.3h-10.3v5.8H121v3.3h-15.4V5.4"/></defs><clipPath id="j"><use xlink:href="#i" overflow="visible"/></clipPath><path clip-path="url(#j)" fill="#1E2432" d="M100.6.4H126v31.3h-25.4z"/><defs><path id="k" d="M130.8 18.1c-1.1 0-2-.9-2.1-1.9v-.3c0-1.2 1-2.1 2.1-2.1 1.2 0 2.1 1 2.1 2.2 0 1.1-1 2.1-2.1 2.1zM182.6 0H138c-1.3 0-2.6.6-3.4 1.7l-8.9 11.5c-1.3 1.6-1.3 3.9 0 5.6l8.9 11.5c.8 1.1 2.1 1.7 3.4 1.7h44.6c2.4 0 4.3-2 4.3-4.5v-23C187 2 185 0 182.6 0z"/></defs><clipPath id="l"><use xlink:href="#k" overflow="visible"/></clipPath><path clip-path="url(#l)" fill="#006FCF" d="M119.9-5H192v41.9h-72.1z"/><defs><path id="m" d="M138.4 8h3.6v2.4c1-1.4 2.4-2.8 4.7-2.8 2.2 0 3.8 1.1 4.7 2.8 1.2-1.7 2.9-2.8 5.2-2.8 3.4 0 5.5 2.2 5.5 6.1V24h-3.6v-9.1c0-2.6-1.1-3.9-3.2-3.9-1.9 0-3.3 1.4-3.3 4v9h-3.6v-9.1c0-2.5-1.2-3.9-3.2-3.9s-3.3 1.5-3.3 4v9h-3.6V8"/></defs><clipPath id="n"><use xlink:href="#m" overflow="visible"/></clipPath><path clip-path="url(#n)" fill="#FFF" d="M133.4 2.6h33.7V29h-33.7z"/><defs><path id="o" d="M177.4 14.9c-.2-2.4-1.6-4.2-3.9-4.2-2.2 0-3.7 1.7-4 4.2h7.9zM165.9 16c0-4.6 3.2-8.4 7.6-8.4 5 0 7.5 4 7.5 8.6 0 .3 0 .7-.1 1h-11.4c.4 2.6 2.2 4.1 4.5 4.1 1.7 0 3-.7 4.2-1.9l2.1 1.9c-1.5 1.8-3.5 3-6.4 3-4.6.1-8-3.3-8-8.3z"/></defs><clipPath id="p"><use xlink:href="#o" overflow="visible"/></clipPath><path clip-path="url(#p)" fill="#FFF" d="M160.9 2.6H186v26.7h-25.1z"/></svg>