<svg width="55" height="16" viewBox="0 0 55 16" fill="none" xmlns="http://www.w3.org/2000/svg">
<path d="M28.7822 6.68112V15.9342H31.3465V6.68112C31.3478 5.60402 31.7763 4.57141 32.538 3.80985C33.2997 3.04829 34.3324 2.61998 35.4095 2.61888V0.0545654C33.6526 0.0565785 31.9682 0.755356 30.7258 1.99762C29.4834 3.23988 28.7844 4.9242 28.7822 6.68112Z" fill="#FF4500"/>
<path d="M49.7246 0.0546412C48.9883 0.054677 48.2606 0.212388 47.5903 0.517166C46.92 0.821944 46.3228 1.26672 45.8387 1.82158C45.1474 1.02866 44.2303 0.465826 43.2103 0.208391C42.1902 -0.0490443 41.1159 0.0112058 40.1311 0.381078C39.1462 0.75095 38.2978 1.4128 37.6994 2.27805C37.1011 3.1433 36.7812 4.17068 36.7827 5.22269V16H39.3463V5.22269C39.3575 4.53939 39.6367 3.88785 40.1239 3.40858C40.611 2.9293 41.267 2.6607 41.9504 2.6607C42.6338 2.6607 43.2898 2.9293 43.777 3.40858C44.2641 3.88785 44.5434 4.53939 44.5545 5.22269V16H47.1181V5.22269C47.1293 4.53939 47.4085 3.88785 47.8957 3.40858C48.3828 2.9293 49.0388 2.6607 49.7222 2.6607C50.4056 2.6607 51.0616 2.9293 51.5487 3.40858C52.0359 3.88785 52.3152 4.53939 52.3263 5.22269V16H54.8899V5.22269C54.8885 3.85297 54.3439 2.53972 53.3756 1.57092C52.4073 0.60212 51.0944 0.0568375 49.7246 0.0546412Z" fill="#FF4500"/>
<path d="M16.2392 6.7787C16.4679 5.84285 16.9413 4.98461 17.6108 4.29191C18.2804 3.59921 19.122 3.09695 20.0495 2.83659C20.9771 2.57622 21.9572 2.56711 22.8894 2.81018C23.8216 3.05326 24.6724 3.53979 25.3547 4.21992L27.1666 2.40526C26.2718 1.51325 25.1783 0.845867 23.9759 0.457754C22.7735 0.0696418 21.4962 -0.0281646 20.2487 0.172343C19.0012 0.37285 17.8189 0.86597 16.7987 1.61133C15.7784 2.35668 14.9492 3.33309 14.3789 4.46058C13.9889 5.23237 13.677 6.16459 13.5864 7.04219C13.4806 8.07953 13.4882 9.09475 13.0836 10.0712C12.7085 10.9729 12.0983 11.7575 11.3167 12.343C10.3797 13.0474 9.23856 13.4269 8.06635 13.4239V13.4281H7.9972C7.20863 13.4277 6.42961 13.2555 5.71427 12.9236C4.99893 12.5918 4.36444 12.1081 3.85488 11.5063C3.34532 10.9045 2.97291 10.1989 2.76355 9.43864C2.55418 8.67837 2.51287 7.88162 2.64248 7.10378C2.7721 6.32593 3.06953 5.58563 3.51412 4.93433C3.9587 4.28303 4.53977 3.73635 5.21695 3.33228C5.89412 2.9282 6.65117 2.67642 7.43546 2.59444C8.21976 2.51246 9.01251 2.60224 9.75861 2.85754L5.28627 8.94329L7.35266 10.4647L13.5235 2.06432L12.399 1.32158C11.3584 0.635097 10.1718 0.201428 8.93377 0.0552007C7.69576 -0.0910267 6.44072 0.0542386 5.26885 0.479397C4.09698 0.904555 3.04076 1.59783 2.18452 2.50386C1.32828 3.40988 0.695743 4.50356 0.337424 5.69757C-0.0208948 6.89157 -0.0950711 8.15281 0.120818 9.38058C0.336708 10.6084 0.836681 11.7686 1.58082 12.7688C2.32495 13.7689 3.29263 14.5812 4.40658 15.1408C5.52053 15.7004 6.7499 15.9918 7.99651 15.9917L8.06566 15.9876C9.79267 15.9932 11.4743 15.4347 12.8547 14.397C13.8602 13.644 14.675 12.6658 15.2337 11.5408C15.8734 10.2483 15.9834 8.85616 16.121 7.44606L16.2392 6.7787Z" fill="#FF4500"/>
<path d="M27.1673 13.5906L25.3554 11.7773C25.1613 11.9705 24.9533 12.1492 24.733 12.3119L24.7178 12.2912C24.4673 12.4767 24.2015 12.6405 23.9232 12.7808C23.1717 13.1658 22.3395 13.3666 21.4951 13.3666C20.6508 13.3666 19.8185 13.1658 19.067 12.7808C18.7888 12.6403 18.523 12.4765 18.2724 12.2912L18.2572 12.3119C18.0368 12.1494 17.8288 11.9707 17.6348 11.7773L15.8215 13.5906C16.5626 14.3329 17.4428 14.9219 18.4117 15.3237C19.3806 15.7255 20.4192 15.9323 21.4681 15.9323H21.5214C22.5702 15.9323 23.6088 15.7256 24.5776 15.3237C25.5464 14.9219 26.4264 14.333 27.1673 13.5906Z" fill="#FF4500"/>
</svg>
