<?xml version="1.0" encoding="UTF-8"?>
<svg width="131px" height="24px" viewBox="0 0 131 24" version="1.1" xmlns="http://www.w3.org/2000/svg" xmlns:xlink="http://www.w3.org/1999/xlink">
    <!-- Generator: Sketch 52.2 (67145) - http://www.bohemiancoding.com/sketch -->
    <title>logo__safeway</title>
    <desc>Created with Sketch.</desc>
    <g id="Page-1" stroke="none" stroke-width="1" fill="none" fill-rule="evenodd">
        <g id="logo__safeway" fill="#80899D">
            <path d="M6.74290909,10.8327273 L5.53418182,10.1323636 C4.07236364,9.28690909 3.28254545,8.63563636 3.28254545,7.632 C3.28254545,6.51927273 4.19563636,5.82545455 5.68145455,5.82545455 C6.66872727,5.82545455 7.89818182,6.23781818 9.54545455,7.12363636 L9.75272727,7.24363636 L9.76145455,4.33745455 C9.75272727,4.32654545 9.72872727,4.31563636 9.72872727,4.31563636 C8.29963636,3.61963636 6.94581818,3.29672727 5.46545455,3.29672727 C2.35309091,3.29672727 0.268363636,5.09454545 0.268363636,7.77163636 C0.268363636,9.99163636 1.70290909,11.2843636 3.85636364,12.5389091 L5.11090909,13.2883636 C6.89454545,14.3345455 7.52727273,15.108 7.52727273,16.2381818 C7.52727273,17.5450909 6.34690909,18.4636364 4.65818182,18.4636364 C3.31418182,18.4636364 1.85236364,17.9334545 0.0610909091,16.7901818 L0,16.7410909 L0,20.0858182 C0.00981818182,20.0934545 0.230181818,20.208 0.230181818,20.208 C1.66130902,20.8743727 3.22245827,21.2149193 4.80109091,21.2050909 C8.316,21.2050909 10.6778182,19.1814545 10.6778182,16.1650909 C10.6778182,13.9909091 9.58036364,12.4952727 6.74290909,10.8338182 L6.74290909,10.8327273 Z M28.2490909,3.69818182 L28.2490909,20.808 L31.2916364,20.808 L31.2916364,13.3069091 L38.0072727,13.3069091 L38.0072727,10.6254545 L31.2916364,10.6254545 L31.2916364,6.40363636 L38.364,6.40363636 L38.364,3.69818182 L28.2490909,3.69818182 Z M43.3134545,13.1858182 L49.7650909,13.1858182 L49.7650909,10.5054545 L43.3134545,10.5054545 L43.3134545,6.40254545 L50.3116364,6.40254545 L50.3116364,3.69818182 L40.3189091,3.69818182 L40.3189091,20.8090909 L50.4272727,20.8090909 L50.4272727,18.0796364 L43.3134545,18.0796364 L43.3134545,13.1858182 Z M97.9483636,3.69818182 L94.2981818,3.69818182 L90.432,9.768 C90.2727273,10.0243636 90.1330909,10.2447273 90.0785455,10.4214545 L90.0338182,10.4214545 C89.9727273,10.2447273 89.8276364,10.0221818 89.6683636,9.77127273 C88.373026,7.75033234 87.0824769,5.72632666 85.7967273,3.69927273 L82.1465455,3.69927273 C82.1465455,3.69927273 88.4956364,13.0178182 88.5087273,13.0341818 L88.5087273,20.808 L91.5981818,20.808 L91.5981818,13.0123636 C91.9341818,12.528 97.9472727,3.69927273 97.9472727,3.69927273 L97.9483636,3.69818182 Z M75.4123636,15.3534545 C75.4123636,15.3534545 76.8414545,11.9214545 77.7447273,9.804 C77.8974545,9.444 77.988,8.96618182 77.988,8.96618182 L78.0218182,8.96618182 C78.0218182,8.96618182 78.12,9.44072727 78.2585455,9.804 C79.2021818,12.0316364 80.5963636,15.3534545 80.5963636,15.3534545 L75.4123636,15.3534545 Z M78.1538182,3.14727273 L77.8570909,3.14727273 L69.8061818,20.8090909 L73.0865455,20.8090909 L74.3607273,17.8341818 L81.648,17.8341818 L82.9210909,20.808 L86.1970909,20.808 L78.1527273,3.14727273 L78.1538182,3.14727273 Z M62.0923636,11.2058182 C62.1927273,10.9636364 62.3214545,10.4672727 62.3345455,10.3516364 L62.376,10.3516364 C62.3869091,10.4563636 62.5232727,10.9581818 62.616,11.2058182 C63.1810909,12.6185455 66.708,21.4090909 66.708,21.4090909 L66.9861818,21.4090909 L73.128,3.69927273 L69.9087273,3.69927273 L66.8705455,13.2294545 C66.7837496,13.5060939 66.7120081,13.7872333 66.6556364,14.0716364 L66.6152727,14.0716364 C66.5586975,13.7856743 66.4814028,13.5042048 66.384,13.2294545 C65.0900291,9.84029026 63.7911186,6.45301394 62.4872727,3.06763636 L62.2221818,3.06763636 C62.2221818,3.06763636 59.04,11.3716364 58.332,13.2109091 C58.2334593,13.4918236 58.1568658,13.7799613 58.1029091,14.0727273 L58.0636364,14.0727273 C58.0032404,13.7880732 57.9286011,13.5066286 57.84,13.2294545 C57.084,10.8338182 54.8018182,3.69927273 54.8018182,3.69927273 L51.5836364,3.69927273 L57.7254545,21.4090909 L58.0025455,21.4090909 L62.0923636,11.2058182 Z M16.3614545,15.3534545 C16.3614545,15.3534545 17.7916364,11.9214545 18.696,9.80072727 C18.8487273,9.44072727 18.936,8.96072727 18.936,8.96072727 L18.9741818,8.96072727 C18.9741818,8.96072727 19.0669091,9.43745455 19.2043636,9.80072727 C20.1523636,12.0316364 21.5443636,15.3534545 21.5443636,15.3534545 L16.3614545,15.3534545 Z M19.0996364,3.14509091 L18.8072727,3.14509091 L10.7563636,20.808 L14.0389091,20.808 L15.3098182,17.8341818 L22.5992727,17.8341818 L23.8712727,20.808 L27.1483636,20.808 L19.0996364,3.14509091 Z M115.121455,19.5992727 C115.121455,14.8625455 108.086182,14.4174545 108.086182,7.68872727 C108.086182,2.832 111.858545,0.424363636 115.608,0.0250909091 C115.26,0.0109090909 114.896727,1.77635684e-15 114.396,1.77635684e-15 C113.490545,1.77635684e-15 113.045455,0.036 112.278545,0.072 C105.265091,0.415636364 101.522182,4.16727273 101.287636,9.93927273 C101.269091,10.3101818 101.230909,10.9581818 101.230909,11.9749091 C101.230909,12.9927273 101.269091,13.6352727 101.287636,14.0116364 C101.515636,19.6276364 105.066545,23.328 111.716727,23.8385455 C112.797818,23.64 115.120364,22.8349091 115.120364,19.5992727 L115.121455,19.5992727 Z" id="Shape"></path>
            <path d="M127.505455,9.93927273 C127.284,4.46945455 123.909818,0.820363636 117.591273,0.153818182 C116.478545,0.382909091 114.270545,1.23163636 114.270545,4.37563636 C114.270545,9.12654545 121.306909,9.56727273 121.306909,16.2927273 C121.306909,20.5003636 118.120364,23.58 113.345455,23.9312727 C113.646545,23.9410909 113.969455,23.9487273 114.396,23.9487273 C115.299273,23.9487273 115.749818,23.9149091 116.512364,23.8789091 C123.523636,23.5374545 127.270909,19.7847273 127.505455,14.0116364 C127.516364,13.6352727 127.553455,12.9927273 127.553455,11.9749091 C127.553455,10.9581818 127.516364,10.3112727 127.505455,9.93927273 Z M128.946545,22.4378182 L129.319636,22.4378182 L129.758182,23.5985455 L130.202182,22.4378182 L130.573091,22.4378182 L130.573091,23.9454545 L130.340727,23.9454545 L130.340727,22.6374545 L130.329818,22.6374545 L129.835636,23.9465455 L129.680727,23.9465455 L129.185455,22.6374545 L129.182182,22.6374545 L129.182182,23.9465455 L128.946545,23.9465455 L128.946545,22.4378182 Z M128.030182,22.6047273 L127.561091,22.6047273 L127.561091,22.4378182 L128.732727,22.4378182 L128.732727,22.6047273 L128.259273,22.6047273 L128.259273,23.9465455 L128.030182,23.9465455 L128.030182,22.6047273 Z" id="Shape"></path>
        </g>
    </g>
</svg>