<?xml version="1.0" encoding="UTF-8"?>
<svg width="155px" height="20px" viewBox="0 0 155 20" version="1.1" xmlns="http://www.w3.org/2000/svg" xmlns:xlink="http://www.w3.org/1999/xlink">
    <!-- Generator: Sketch 52.2 (67145) - http://www.bohemiancoding.com/sketch -->
    <title>logo__sephora</title>
    <desc>Created with Sketch.</desc>
    <g id="Page-1" stroke="none" stroke-width="1" fill="none" fill-rule="evenodd">
        <g id="logo__sephora" fill="#80899D" fill-rule="nonzero">
            <path d="M76.140163,8.040658 L66.450448,8.040658 L66.450448,0.60184566 L63.5174535,0.60184566 L63.5174535,19.4904374 L66.450448,19.4904374 L66.450448,10.5403237 L76.1415005,10.5403237 L76.1415005,19.4904374 L79.0423965,19.4904374 L79.0423965,0.60184566 L76.140163,0.60184566 L76.140163,8.040658 Z M47.5458071,0.54032366 C46.4812091,0.508225225 44.3199144,0.508225225 42.4073826,0.508225225 L42.4073826,19.4730506 L45.3698006,19.4730506 L45.3698006,12.2856761 C46.1107396,12.2856761 47.6380901,12.2228167 48.8738799,12.1920557 C50.6018455,12.1612947 55.106326,11.2973118 55.0769025,6.09736525 C55.1223755,0.231376221 48.6264544,0.54032366 47.5458071,0.54032366 Z M47.3920021,9.76862384 L45.4313226,9.76862384 L45.4313226,2.93165709 L47.0977665,2.93165709 C47.8694664,2.93165709 52.4220945,2.59194864 52.5611875,6.1267888 C52.7457535,9.59876959 49.1507289,9.76862384 47.3920021,9.76862384 Z M20.2006151,0.508225225 L20.2313761,19.4730506 L32.1291961,19.4730506 L32.1291961,17.0041461 L23.1951318,17.0041461 L23.1951318,10.5710847 L29.5211984,10.5710847 C29.5211984,10.030761 29.4904374,9.24434934 29.5211984,8.2091748 L23.1951318,8.2091748 L23.1951318,3.0399893 L32.1291961,3.0399893 C32.0984351,1.54206233 32.1291961,0.50956266 32.1291961,0.50956266 L20.1992779,0.50956266 L20.2006151,0.508225225 Z M2.90089609,5.1384245 C2.90089609,2.0369132 7.0068209,1.9138692 9.42891534,3.90397219 C10.2621372,1.51263876 10.3249967,1.34278454 10.3249967,1.34278454 C3.25531631,-2.05296241 0.0294235656,2.43948107 0.0294235656,5.3082787 C0.0294235656,12.1760064 9.76594891,10.7101779 8.36164234,15.5396549 C7.86946635,17.2997191 4.73719406,18.3027953 1.1261201,16.1107396 C0.862645441,16.8516785 0.430654006,17.7477599 0,18.6411662 C4.76795506,21.1421694 10.9562659,19.938478 11.1568811,14.7840044 C11.4350676,8.30279525 2.90089609,8.76554766 2.90089609,5.1384245 Z M127.961749,5.8338906 C127.529759,0.20061522 122.066337,0.63260666 120.862646,0.57108466 C119.860907,0.54032366 117.730373,0.508225225 115.894075,0.508225225 L115.894075,19.4422896 L118.856493,19.4422896 L118.856493,11.4818777 C119.859569,11.4818777 120.184566,11.4818777 121.695868,11.4190183 L127.097766,19.4436271 L130.692791,19.4436271 L124.721145,10.9268423 C126.326066,10.3410458 128.193126,8.96750034 127.961749,5.83522805 L127.961749,5.8338906 Z M120.692791,9.25906109 C120.029423,9.25906109 119.519861,9.25906109 118.856493,9.22830009 L118.856493,2.8246623 L120.415942,2.8246623 C121.155543,2.8246623 125.044804,2.59194864 125.384512,5.6947974 C125.801791,9.36739334 121.495252,9.25906109 120.692791,9.25906109 Z M147.513709,0.538986225 L144.088539,0.538986225 L137.884179,19.5064866 L140.815835,19.5064866 C141.742677,16.0799786 142.051625,15.1076635 142.051625,15.1076635 L149.720476,15.0769025 C150.616557,17.6073291 151.279925,19.5372476 151.279925,19.5372476 L154.319914,19.5372476 L147.513709,0.54032366 L147.513709,0.538986225 Z M142.731041,12.9329945 L145.725559,3.56560118 L145.756319,3.56560118 L148.888591,12.9022335 L142.731041,12.9329945 Z M97.437475,0 C91.4029691,0 87.4682359,4.46034506 87.4682359,10 C87.4682359,15.5396549 91.4029691,20 97.437475,20 C103.470643,20 107.406714,15.5396549 107.406714,10 C107.406714,4.46034506 103.470643,0 97.437475,0 Z M97.437475,17.2689581 C93.0078909,17.2689581 90.5095625,14.0430654 90.5095625,10 C90.5095625,6.0024074 93.0078909,2.73104186 97.437475,2.73104186 C101.834961,2.73104186 104.365387,5.9569346 104.365387,10 C104.365387,13.9962551 101.865722,17.2689581 97.437475,17.2689581 Z" id="Shape"></path>
        </g>
    </g>
</svg>