<?xml version="1.0" encoding="utf-8"?>
<!-- Generator: Adobe Illustrator 24.3.0, SVG Export Plug-In . SVG Version: 6.00 Build 0)  -->
<svg version="1.1" id="Layer_1" xmlns="http://www.w3.org/2000/svg" xmlns:xlink="http://www.w3.org/1999/xlink" x="0px" y="0px"
	 viewBox="0 0 288.6 72" style="enable-background:new 0 0 288.6 72;" xml:space="preserve">
<style type="text/css">
	.st0{fill:#6E7C7D;}
	.st1{fill:#39B4E6;}
</style>
<g>
	<polygon class="st0" points="108.9,25.6 108.9,52 103.5,52 103.5,25.6 94.5,25.6 94.5,21.1 117.9,21.1 117.9,25.6 	"/>
	<path class="st0" d="M139.6,20.6h0.2L154.4,52h-5.7l-2.7-6.1h-12.6l-2.7,6.1H125L139.6,20.6z M144.3,41.8
		c-1.8-3.9-3.2-7.4-4.5-10.9c-1.3,3.2-2.9,7.2-4.6,10.9H144.3z"/>
	<polygon class="st0" points="166.2,21.1 174,34.7 181.8,21.1 187.9,21.1 176.7,39.9 176.7,52 171.3,52 171.3,39.9 160.2,21.1 	"/>
	<path class="st0" d="M222,41.5c0,6.9-4.2,11-11.2,11c-7.1,0-11.3-4.1-11.3-11V21.1h2.5v20.3c0,5.5,3.3,8.7,8.8,8.7
		c5.5,0,8.8-3.3,8.8-8.7V21.1h2.4V41.5z"/>
	<path class="st0" d="M237.9,50.6v-2.5c1.9,0.9,5,2.1,8.5,2.1c4.2,0,7.4-2,7.4-5.4c0-3.4-1.6-5.2-7.3-7.2c-6.3-2.3-8.6-5-8.6-9.2
		c0-5,4.4-7.8,9.6-7.8c3,0,5.7,0.9,7.3,1.6v2.4c-1.7-0.8-4.6-1.8-7.3-1.8c-4.1,0-7.1,2.1-7.1,5.4c0,3,1.5,5.1,7.2,7.2
		c6.4,2.3,8.7,4.8,8.7,9.2c0,4.9-4.2,7.8-9.9,7.8C243,52.5,239.8,51.5,237.9,50.6"/>
	<path class="st0" d="M270.2,50.6v-2.5c1.9,0.9,5,2.1,8.5,2.1c4.2,0,7.4-2,7.4-5.4c0-3.4-1.6-5.2-7.3-7.2c-6.3-2.3-8.6-5-8.6-9.2
		c0-5,4.4-7.8,9.6-7.8c3,0,5.7,0.9,7.3,1.6v2.4c-1.7-0.8-4.6-1.8-7.3-1.8c-4.1,0-7.1,2.1-7.1,5.4c0,3,1.5,5.1,7.2,7.2
		c6.4,2.3,8.7,4.8,8.7,9.2c0,4.9-4.2,7.8-9.9,7.8C275.2,52.5,272.1,51.5,270.2,50.6"/>
	<path class="st1" d="M56.4,41.2h-19V21.1c0-2.5,2-4.5,4.5-4.5c2.5,0,4.5,2,4.5,4.5v11.2h10c2.5,0,4.5,2,4.5,4.5
		C60.9,39.2,58.9,41.2,56.4,41.2"/>
	<path class="st1" d="M30.1,56.9c-2.5,0-4.5-2-4.5-4.5V41.2h-10c-2.5,0-4.5-2-4.5-4.5s2-4.5,4.5-4.5h19v20.1
		C34.6,54.9,32.6,56.9,30.1,56.9"/>
	<path class="st1" d="M36,72C16.2,72,0,55.9,0,36C0,16.2,16.2,0,36,0s36,16.2,36,36C72,55.9,55.9,72,36,72 M36,5.7
		C19.3,5.7,5.7,19.3,5.7,36c0,16.7,13.6,30.3,30.3,30.3S66.3,52.7,66.3,36C66.3,19.3,52.7,5.7,36,5.7"/>
</g>
</svg>
