<?xml version="1.0" encoding="UTF-8"?>
<svg width="136px" height="28px" viewBox="0 0 136 28" version="1.1" xmlns="http://www.w3.org/2000/svg" xmlns:xlink="http://www.w3.org/1999/xlink">
    <!-- Generator: Sketch 52.2 (67145) - http://www.bohemiancoding.com/sketch -->
    <title>logo__target</title>
    <desc>Created with Sketch.</desc>
    <g id="Page-1" stroke="none" stroke-width="1" fill="none" fill-rule="evenodd">
        <g id="logo__target" fill="#80899D">
            <path d="M14.0053402,23.3042267 C8.86438145,23.3042267 4.69230928,19.1387938 4.69230928,13.9969691 C4.69230928,8.84583505 8.86438145,4.68343298 14.0053402,4.68343298 C19.1507733,4.68343298 23.3176495,8.84583505 23.3176495,13.9969691 C23.3176495,19.1387938 19.1507733,23.3042267 14.0053402,23.3042267 Z M14.0053402,0.0331237114 C6.29841238,0.0331237114 0.0487113402,6.28441238 0.0487113402,13.9969691 C0.0487113402,21.7036083 6.29841238,27.9529484 14.0053402,27.9529484 C21.7155876,27.9529484 27.9751031,21.7036083 27.9751031,13.9969691 C27.9751031,6.28441238 21.7155876,0.0331237114 14.0053402,0.0331237114 Z" id="Shape" fill-rule="nonzero"></path>
            <path d="M14.0053402,9.21192783 C11.3635979,9.21192783 9.2231134,11.3472165 9.2231134,13.9969691 C9.2231134,16.6379897 11.3635258,18.7796288 14.0053402,18.7796288 C16.6496083,18.7796288 18.7947114,16.6379176 18.7947114,13.9969691 C18.7947114,11.3472887 16.6496083,9.21192783 14.0053402,9.21192783" id="Path"></path>
            <path d="M39.614489,7.62742105 L34.0478465,7.62742105 L34.0478465,4.19207895 L49.2657544,4.19207895 L49.2657544,7.62742105 L43.6991119,7.62742105 L43.6991119,22.7675614 L39.614489,22.7675614 L39.614489,7.62742105 Z M47.4969342,22.7675614 L51.6314013,22.7675614 L53.0894122,18.6299627 L60.0355154,18.6299627 L61.4408114,22.7675614 L65.6804473,22.7675614 L58.7343443,4.19207895 L54.5469013,4.19207895 L47.4969342,22.7675614 Z M56.5756425,8.76914254 L56.6267917,8.76914254 L58.967125,15.5863289 L54.1578026,15.5863289 L56.5756425,8.76914254 Z M67.2913837,22.7675614 L71.3778333,22.7675614 L71.3778333,15.5096053 L75.4595855,15.5096053 C77.516772,15.5096053 78.2696557,16.367397 78.5551513,18.3175877 C78.76575,19.8009122 78.7127741,21.5963509 79.2075636,22.7678223 L83.2895768,22.7678223 C82.5620066,21.7276163 82.588886,19.5394254 82.5098136,18.3692587 C82.3790702,16.4934429 81.8091228,14.5445571 79.8043904,14.0247149 L79.8043904,13.9733048 C81.8620987,13.1413487 82.7457259,11.5043158 82.7457259,9.316125 C82.7457259,6.50866447 80.6368684,4.1931228 77.308,4.1931228 L67.2916447,4.1931228 L67.2913837,22.7675614 Z M71.3778333,7.36593421 L75.8531206,7.36593421 C77.6712631,7.36593421 78.6605812,8.14674122 78.6605812,9.93983114 C78.6605812,11.8119934 77.6712631,12.5938443 75.8531206,12.5938443 L71.3778333,12.5938443 L71.3778333,7.36593421 Z M98.9764386,20.6589649 C97.5442631,22.5086842 95.6744496,23.2135504 93.878489,23.2135504 C88.1304759,23.2135504 84.7475877,18.9141535 84.7475877,13.5547172 C84.7475877,8.04235526 88.1302149,3.75183114 93.878489,3.75183114 C97.6755285,3.75183114 101.266928,6.09294737 101.710307,10.3038772 L97.806011,10.3038772 C97.3367961,8.24669079 95.8023223,7.18404167 93.878489,7.18404167 C90.2101053,7.18404167 88.8293399,10.3038772 88.8293399,13.5547172 C88.8293399,16.6521096 90.2101053,19.772467 93.878489,19.772467 C96.5327631,19.772467 98.0643663,18.3426404 98.2997566,15.7656119 L94.191386,15.7656119 L94.191386,12.7253706 L101.993976,12.7253706 L101.993976,22.7673004 L99.3905899,22.7673004 L98.9764386,20.6589649 Z M104.778471,4.19207895 L118.665458,4.19207895 L118.665458,7.62742105 L108.862311,7.62742105 L108.862311,11.6058311 L117.861425,11.6058311 L117.861425,14.7825571 L108.862311,14.7825571 L108.862311,19.3322193 L118.876057,19.3322193 L118.876057,22.7675614 L104.778471,22.7675614 L104.778471,4.19207895 Z M126.263973,7.62742105 L120.697071,7.62742105 L120.697071,4.19207895 L135.917066,4.19207895 L135.917066,7.62742105 L130.347292,7.62742105 L130.347292,22.7675614 L126.263973,22.7675614 L126.263973,7.62742105 Z" id="Shape" fill-rule="nonzero"></path>
        </g>
    </g>
</svg>